<?xml version="1.0" encoding="UTF-8"?>
<svg width="27px" height="25px" viewBox="0 0 27 25" version="1.1" xmlns="http://www.w3.org/2000/svg" xmlns:xlink="http://www.w3.org/1999/xlink">
    <!-- Generator: sketchtool 61 (101010) - https://sketch.com -->
    <title>136579F4-8811-4795-A4D0-279CD0874ADD</title>
    <desc>Created with sketchtool.</desc>
    <g id="Design-" stroke="none" stroke-width="1" fill="none" fill-rule="evenodd">
        <g id="Social-Alpha/-1440/-7.1-Searched-Keyword-Result" transform="translate(-170.000000, -1012.000000)" fill="#FFFFFF" fill-rule="nonzero" stroke="#FFFFFF" stroke-width="0.5">
            <g id="Contributors-Listed" transform="translate(150.000000, 1000.000000)">
                <g id="Contributors-Listed-Title">
                    <g id="Contributor-Icon" transform="translate(20.000000, 13.000000)">
                        <path d="M18.6444245,5.44064137 C18.2483374,2.62015299 15.9510322,0.348092914 13.0992051,0.0347053168 C9.29676888,-0.357029179 6.04885465,2.62015299 6.04885465,6.30245726 C6.04885465,8.26112974 6.99946369,10.2198022 8.66302952,11.3950057 C8.9798992,11.6300464 9.21755146,12.1001278 9.21755146,12.5702092 L9.21755146,13.3536782 L15.5549451,13.3536782 L15.5549451,12.5702092 C15.5549451,12.1001278 15.7925974,11.6300464 16.0302496,11.3950057 C18.0106851,10.0631084 18.9612942,7.79104834 18.6444245,5.44064137 Z M15.158858,10.1414553 C14.604336,10.5331898 14.2874664,11.0816181 14.0498141,11.7867402 L13.1784225,11.7867402 L13.1784225,7.55600765 L15.5549451,6.06741656 L14.6835535,4.73551927 L12.3862483,6.14576346 L10.0889431,4.73551927 L9.21755146,6.06741656 L11.5940741,7.55600765 L11.5940741,11.7867402 L10.7226825,11.7867402 C10.5642476,11.0816181 10.1681605,10.5331898 9.61363857,10.0631084 C8.34615984,9.20129253 7.63320306,7.79104834 7.63320306,6.30245726 C7.63320306,3.56031578 10.0889431,1.2882557 12.9407702,1.6016433 C15.0796406,1.836684 16.8224238,3.56031578 17.0600761,5.59733516 C17.2977283,7.39931385 16.5847716,9.12294563 15.158858,10.1414553 Z" id="Shape"></path>
                        <path d="M26.4481546,16.4788606 C25.9663539,15.4219124 24.6834681,14.9526326 23.5761788,15.2990633 L18.9672631,16.7396129 C18.9539844,16.5613795 18.9167246,16.3837037 18.8548892,16.2097449 C18.6620501,15.6672389 18.2553635,15.2275098 17.7097456,14.9717755 L11.3985733,12.0126179 C10.5449677,11.6122897 9.56907856,11.5271689 8.6514574,11.7730529 L6.76845126,12.2776449 C6.59998952,11.2517342 5.6524416,10.4639017 4.51205458,10.4639017 L1.41731285,10.4639017 C0.996951214,10.4639017 0.656262056,10.7833837 0.656262056,11.1775787 L0.656262056,21.1688707 C0.656262056,21.5628799 0.996951214,21.8825477 1.41731285,21.8825477 L6.03415617,21.8825477 C6.45451781,21.8825477 6.79520696,21.5628799 6.79520696,21.1688707 L6.79520696,20.7861986 L10.7298792,22.6309793 C12.4911965,23.4561683 14.5904283,23.5529979 16.4888933,22.7891405 L25.2489051,19.2893354 C26.407922,18.8239586 26.9452159,17.5661029 26.4481546,16.4788606 L26.4481546,16.4788606 Z M5.27310537,20.4551937 L2.17836365,20.4551937 L2.17836365,11.8912557 L4.51225275,11.8912557 C4.93182163,11.8912557 5.27310537,12.2112952 5.27310537,12.6049327 L5.27310537,20.4551937 Z M24.6511631,17.9768389 L15.8905567,21.4768298 C14.4273177,22.0654274 12.7970041,22.00391 11.4102665,21.3541665 L6.79520696,19.1904614 L6.79520696,13.7548075 L9.06963898,13.1455801 C9.62021164,12.9978267 10.2056658,13.0489364 10.7179878,13.2892448 L17.0291601,16.2484024 C17.4045325,16.4244056 17.5573372,16.8539127 17.369651,17.2061049 C17.1781992,17.5649878 16.7176049,17.6984305 16.3483763,17.5252151 L12.5829586,15.7597939 C11.6223302,15.3092853 10.4405213,15.5551692 9.77321456,16.3443027 C9.51199975,16.6530052 9.56709663,17.102027 9.89648896,17.3467959 C10.2256831,17.5917506 10.7045108,17.5400834 10.9657256,17.2311951 C11.1880952,16.9682125 11.5818994,16.8862512 11.9021749,17.0364207 L15.6675926,18.801842 C16.4956317,19.1900897 17.5113571,19.0746748 18.2155273,18.4792006 L24.0577813,16.6530052 C24.4377121,16.534059 24.8885951,16.6888749 25.0487328,17.0405095 C25.2167982,17.4077558 25.0303011,17.8244391 24.6511631,17.9768389 L24.6511631,17.9768389 Z" id="Shape"></path>
                    </g>
                </g>
            </g>
        </g>
    </g>
</svg>