<?xml version="1.0" encoding="UTF-8"?>
<svg width="20px" height="20px" viewBox="0 0 20 20" version="1.1" xmlns="http://www.w3.org/2000/svg" xmlns:xlink="http://www.w3.org/1999/xlink">
    <!-- Generator: sketchtool 61 (101010) - https://sketch.com -->
    <title>6BF3F9A3-C723-47CC-B84C-E0F188F4E7FD</title>
    <desc>Created with sketchtool.</desc>
    <g id="Design-" stroke="none" stroke-width="1" fill="none" fill-rule="evenodd">
        <g id="Social-Alpha/-General/-Notification-Popup" transform="translate(-20.000000, -124.000000)" fill="#F2342F" fill-rule="nonzero">
            <g id="Group-5">
                <g id="Group-3">
                    <g id="Error" transform="translate(20.000000, 124.000000)">
                        <g id="Group">
                            <g id="Group-2" transform="translate(9.000000, 4.000000)">
                                <rect id="Rectangle" x="0" y="0" width="2" height="8"></rect>
                                <rect id="Rectangle" x="0" y="10" width="2" height="2"></rect>
                            </g>
                            <path d="M10,0 C4.5,0 0,4.5 0,10 C0,15.5 4.5,20 10,20 C15.5,20 20,15.5 20,10 C20,4.5 15.5,0 10,0 Z M10,18 C5.6,18 2,14.4 2,10 C2,5.6 5.6,2 10,2 C14.4,2 18,5.6 18,10 C18,14.4 14.4,18 10,18 Z" id="Shape"></path>
                        </g>
                    </g>
                </g>
            </g>
        </g>
    </g>
</svg>