<?xml version="1.0" encoding="UTF-8"?>
<svg width="25px" height="30px" viewBox="0 0 25 30" version="1.1" xmlns="http://www.w3.org/2000/svg" xmlns:xlink="http://www.w3.org/1999/xlink">
    <!-- Generator: sketchtool 61 (101010) - https://sketch.com -->
    <title>27166B3B-2501-47DE-AC8E-326DEF5BE687</title>
    <desc>Created with sketchtool.</desc>
    <g id="Design-" stroke="none" stroke-width="1" fill="none" fill-rule="evenodd">
        <g id="Social-Alpha/-1440/-3.-Register" transform="translate(-150.000000, -219.000000)" fill="#717171" fill-rule="nonzero">
            <g id="What-can-you-do">
                <g id="Text" transform="translate(150.000000, 160.000000)">
                    <g id="Problem" transform="translate(0.000000, 59.000000)">
                        <g id="Problem-Icon">
                            <g id="Group">
                                <path d="M24.0933673,10.5218659 C23.3357143,5.16909621 18.9413265,0.857142857 13.4862245,0.262390671 C6.2127551,-0.481049563 -9.39692768e-13,5.16909621 -9.39692768e-13,12.1574344 C-9.39692768e-13,15.8746356 1.81836735,19.5918367 5.0005102,21.8221574 C5.60663265,22.2682216 6.06122449,23.1603499 6.06122449,24.0524781 L6.06122449,25.5393586 L18.1836735,25.5393586 L18.1836735,24.0524781 C18.1836735,23.1603499 18.6382653,22.2682216 19.0928571,21.8221574 C22.8811224,19.2944606 24.6994898,14.9825073 24.0933673,10.5218659 Z M17.4260204,19.4431487 C16.3653061,20.1865889 15.7591837,21.2274052 15.3045918,22.5655977 L13.6377551,22.5655977 L10.6071429,22.5655977 L8.94030612,22.5655977 C8.6372449,21.2274052 7.87959184,20.1865889 6.81887755,19.2944606 C4.39438776,17.6588921 3.03061224,14.9825073 3.03061224,12.1574344 C3.03061224,6.95335277 7.72806122,2.64139942 13.1831633,3.2361516 C17.2744898,3.68221574 20.6081633,6.95335277 21.0627551,10.819242 C21.5173469,14.2390671 20.1535714,17.5102041 17.4260204,19.4431487 Z" id="Shape"></path>
                                <path d="M12.122449,6.20991254 C9.54642857,6.20991254 7.57653061,8.14285714 7.57653061,10.6705539 L10.6071429,10.6705539 C10.6071429,9.77842566 11.2132653,9.18367347 12.122449,9.18367347 C13.0316327,9.18367347 13.6377551,9.77842566 13.6377551,10.6705539 C13.6377551,11.1166181 13.4862245,11.5626822 13.0316327,11.8600583 C11.5163265,12.9008746 10.6071429,14.5364431 10.6071429,16.1720117 L10.6071429,16.6180758 L13.6377551,16.6180758 L13.6377551,16.1720117 C13.6377551,15.1311953 14.3954082,14.5364431 14.85,14.2390671 C15.9107143,13.3469388 16.6683673,12.0087464 16.6683673,10.6705539 C16.6683673,8.14285714 14.6984694,6.20991254 12.122449,6.20991254 Z" id="Path"></path>
                                <rect id="Rectangle" x="10.6071429" y="18.1049563" width="3.03061224" height="2.97376093"></rect>
                                <path d="M15.1530612,27.0262391 L9.09183673,27.0262391 C8.18265306,27.0262391 7.57653061,27.6209913 7.57653061,28.5131195 C7.57653061,29.4052478 8.18265306,30 9.09183673,30 L15.1530612,30 C16.0622449,30 16.6683673,29.4052478 16.6683673,28.5131195 C16.6683673,27.6209913 16.0622449,27.0262391 15.1530612,27.0262391 Z" id="Path"></path>
                            </g>
                        </g>
                    </g>
                </g>
            </g>
        </g>
    </g>
</svg>