<?xml version="1.0" encoding="UTF-8"?>
<svg width="15px" height="12px" viewBox="0 0 15 12" version="1.1" xmlns="http://www.w3.org/2000/svg" xmlns:xlink="http://www.w3.org/1999/xlink">
    <!-- Generator: sketchtool 61 (101010) - https://sketch.com -->
    <title>651D740C-CD0A-4DE5-9A82-C17E62C15F77</title>
    <desc>Created with sketchtool.</desc>
    <g id="Design-" stroke="none" stroke-width="1" fill="none" fill-rule="evenodd">
        <g id="Social-Alpha/-1440/-9.1-Problem-Detail---Overview-" transform="translate(-875.000000, -1208.000000)" fill="#717171" fill-rule="nonzero">
            <g id="RHS-Card" transform="translate(826.000000, 395.000000)">
                <g id="Comment-2" transform="translate(19.000000, 426.000000)">
                    <g id="Actions" transform="translate(0.000000, 366.000000)">
                        <g id="Reply-Button" transform="translate(20.000000, 12.000000)">
                            <path d="M15.6892187,9.00397494 C15.5897474,9.0173033 15.4965957,9.06152476 15.4221999,9.1307355 L10.1639839,14.032144 C10.0596292,14.1283337 10,14.2656545 10,14.4097848 C10,14.5539151 10.0596292,14.6912359 10.1639839,14.7874256 L15.4221999,19.6888341 C15.5667248,19.8217411 15.7735631,19.855189 15.9507657,19.7743087 C16.1279683,19.6934284 16.2426369,19.5132355 16.2437961,19.3138341 L16.2437961,17.1377778 C20.0546655,17.2633383 22.0945394,18.7771552 23.9462609,20.6817918 C24.0866227,20.8266097 24.2978164,20.8705418 24.4818584,20.7932056 C24.6659005,20.7158695 24.786773,20.5324002 24.7883971,20.3279186 C24.7883971,16.4092594 21.3327275,12.1612003 16.2437961,11.7451721 L16.2437961,9.51101719 C16.2448954,9.36480897 16.184585,9.22522825 16.0783399,9.12808989 C15.9720948,9.03095153 15.8302564,8.98571043 15.6892187,9.00397494 Z M15.2578806,10.6518623 L15.2578806,12.2152425 C15.2577764,12.4891905 15.469226,12.7136974 15.7354335,12.7222848 C19.984579,12.8632696 22.9903348,16.001589 23.6587022,19.0655947 C21.8039982,17.4127383 19.4786823,16.1025665 15.7508384,16.1025665 C15.4785966,16.1025945 15.2579078,16.3295886 15.2578806,16.6096087 L15.2578806,18.1677073 L11.2269241,14.4124256 L15.2578806,10.6518623 Z" id="Shape"></path>
                        </g>
                    </g>
                </g>
            </g>
        </g>
    </g>
</svg>