<svg height='100px' width='100px'  fill="#000000" xmlns="http://www.w3.org/2000/svg" xmlns:xlink="http://www.w3.org/1999/xlink" version="1.1" x="0px" y="0px" viewBox="0 0 64 64" style="enable-background:new 0 0 64 64;" xml:space="preserve"><path d="M58,6H6c-2.7,0-5,2.2-5,5V53c0,2.7,2.2,5,5,5H58c2.7,0,5-2.2,5-5V11C63,8.2,60.8,6,58,6z M6,8H58c1.6,0,3,1.3,3,3v5H3v-5  C3,9.3,4.3,8,6,8z M58,56H6c-1.6,0-3-1.3-3-3V18h58v35C61,54.7,59.7,56,58,56z"></path><path d="M43,15c1.7,0,3-1.3,3-3s-1.3-3-3-3s-3,1.3-3,3S41.3,15,43,15z M43,11c0.6,0,1,0.4,1,1s-0.4,1-1,1s-1-0.4-1-1S42.4,11,43,11z  "></path><path d="M50,15c1.7,0,3-1.3,3-3s-1.3-3-3-3s-3,1.3-3,3S48.3,15,50,15z M50,11c0.6,0,1,0.4,1,1s-0.4,1-1,1s-1-0.4-1-1S49.4,11,50,11z  "></path><path d="M57,15c1.7,0,3-1.3,3-3s-1.3-3-3-3s-3,1.3-3,3S55.3,15,57,15z M57,11c0.6,0,1,0.4,1,1s-0.4,1-1,1s-1-0.4-1-1S56.4,11,57,11z  "></path><path d="M44,34h-2.5c-0.2-0.6-0.4-1.1-0.7-1.6l1.7-1.7c0.2-0.2,0.3-0.4,0.3-0.7s-0.1-0.5-0.3-0.7l-2.8-2.8c-0.4-0.4-1-0.4-1.4,0  l-1.7,1.7c-0.5-0.3-1.1-0.5-1.6-0.7V25c0-0.6-0.4-1-1-1h-4c-0.6,0-1,0.4-1,1v2.5c-0.6,0.2-1.1,0.4-1.6,0.7l-1.7-1.7  c-0.4-0.4-1-0.4-1.4,0l-2.8,2.8c-0.2,0.2-0.3,0.4-0.3,0.7s0.1,0.5,0.3,0.7l1.7,1.7c-0.3,0.5-0.5,1.1-0.7,1.6H20c-0.6,0-1,0.4-1,1v4  c0,0.6,0.4,1,1,1h2.5c0.2,0.6,0.4,1.1,0.7,1.6l-1.7,1.7c-0.2,0.2-0.3,0.4-0.3,0.7s0.1,0.5,0.3,0.7l2.8,2.8c0.2,0.2,0.5,0.3,0.7,0.3  s0.5-0.1,0.7-0.3l1.7-1.7c0.5,0.3,1.1,0.5,1.6,0.7V49c0,0.6,0.4,1,1,1h4c0.6,0,1-0.4,1-1v-2.5c0.6-0.2,1.1-0.4,1.6-0.7l1.7,1.7  c0.2,0.2,0.5,0.3,0.7,0.3s0.5-0.1,0.7-0.3l2.8-2.8c0.2-0.2,0.3-0.4,0.3-0.7s-0.1-0.5-0.3-0.7l-1.7-1.7c0.3-0.5,0.5-1.1,0.7-1.6H44  c0.6,0,1-0.4,1-1v-4C45,34.4,44.6,34,44,34z M36.3,43.8C36.3,43.8,36.3,43.8,36.3,43.8c-0.8,0.5-1.6,0.8-2.5,1  C32.9,45,32,45,31.1,44.9c-0.3,0-0.6-0.1-0.9-0.1c-0.9-0.2-1.7-0.6-2.5-1c-1-0.6-1.9-1.5-2.5-2.5c-0.5-0.8-0.8-1.6-1-2.5  C24.1,38.2,24,37.6,24,37c0-0.6,0.1-1.2,0.2-1.8c0.2-0.9,0.6-1.7,1-2.5c0.2-0.3,0.3-0.5,0.5-0.7c0.6-0.7,1.2-1.3,2-1.8c0,0,0,0,0,0  c0.8-0.5,1.6-0.8,2.5-1c1.2-0.3,2.4-0.3,3.6,0c0.9,0.2,1.7,0.6,2.5,1c1,0.6,1.9,1.5,2.5,2.5c0.5,0.8,0.8,1.6,1,2.5  c0.1,0.6,0.2,1.2,0.2,1.8c0,0.6-0.1,1.2-0.2,1.8c-0.2,0.9-0.6,1.7-1,2.5C38.1,42.3,37.3,43.1,36.3,43.8z M39.1,28.5l1.4,1.4  l-0.7,0.7c-0.2-0.3-0.4-0.5-0.7-0.7c0,0,0,0,0,0c-0.2-0.2-0.5-0.5-0.7-0.7L39.1,28.5z M31,26h2v1.1c-0.3,0-0.7-0.1-1-0.1  s-0.7,0-1,0.1V26z M24.9,28.5l0.7,0.7c-0.3,0.2-0.5,0.4-0.7,0.7c0,0,0,0,0,0c-0.2,0.2-0.5,0.5-0.7,0.7l-0.7-0.7L24.9,28.5z M21,38  v-2h1c0,0.3,0,0.7,0,1s0,0.7,0,1H21z M24.9,45.5l-1.4-1.4l0.7-0.7c0.2,0.3,0.4,0.5,0.7,0.7c0,0,0,0,0,0c0.2,0.2,0.5,0.5,0.7,0.7  L24.9,45.5z M33,48h-2v-1.1c0.7,0.1,1.3,0.1,2,0V48z M39.1,45.5l-0.7-0.7c0.3-0.2,0.5-0.4,0.7-0.7c0,0,0,0,0,0  c0.2-0.2,0.5-0.5,0.7-0.7l0.7,0.7L39.1,45.5z M43,38h-1c0-0.3,0-0.7,0-1s0-0.7,0-1h1V38z"></path><path d="M36.2,34.3c-0.4-0.6-0.9-1.2-1.6-1.6c-0.5-0.3-1-0.5-1.6-0.6c-0.7-0.2-1.5-0.2-2.2,0c-0.6,0.1-1.1,0.3-1.5,0.6  c-0.6,0.4-1.2,0.9-1.6,1.6c-0.3,0.5-0.5,1-0.6,1.6C27,36.3,27,36.6,27,37s0,0.7,0.1,1.1c0.1,0.6,0.3,1.1,0.6,1.5  c0.4,0.6,0.9,1.2,1.6,1.6c0.5,0.3,1,0.5,1.6,0.6C31.3,42,31.6,42,32,42s0.7,0,1.1-0.1c0.6-0.1,1.1-0.3,1.5-0.6  c0.6-0.4,1.2-0.9,1.6-1.6c0.3-0.5,0.5-1,0.6-1.6C37,37.7,37,37.4,37,37s0-0.7-0.1-1.1C36.8,35.3,36.5,34.8,36.2,34.3z M34.9,37.7  c-0.1,0.3-0.2,0.6-0.4,0.9c-0.2,0.4-0.6,0.7-0.9,0.9c-0.3,0.2-0.6,0.3-0.9,0.4c-0.5,0.1-0.9,0.1-1.3,0c-0.3-0.1-0.7-0.2-0.9-0.4  c-0.4-0.2-0.7-0.6-0.9-0.9c-0.2-0.3-0.3-0.6-0.4-0.9c0-0.2-0.1-0.5-0.1-0.7s0-0.4,0.1-0.7c0.1-0.3,0.2-0.6,0.4-0.9  c0.2-0.4,0.6-0.7,0.9-0.9c0.3-0.2,0.6-0.3,0.9-0.4c0.2,0,0.5-0.1,0.7-0.1s0.4,0,0.7,0.1c0.3,0.1,0.7,0.2,0.9,0.4  c0.4,0.2,0.7,0.6,0.9,0.9c0.2,0.3,0.3,0.6,0.4,0.9c0,0.2,0.1,0.5,0.1,0.7S35,37.4,34.9,37.7z"></path></svg>