<?xml version="1.0" encoding="UTF-8"?>
<svg width="40px" height="38px" viewBox="0 0 40 38" version="1.1" xmlns="http://www.w3.org/2000/svg" xmlns:xlink="http://www.w3.org/1999/xlink">
    <!-- Generator: sketchtool 61 (101010) - https://sketch.com -->
    <title>358C7656-1613-460E-B4B6-FB7054D54F91</title>
    <desc>Created with sketchtool.</desc>
    <g id="Design-" stroke="none" stroke-width="1" fill="none" fill-rule="evenodd">
        <g id="Social-Alpha/-1440/-3.-Register" transform="translate(-150.000000, -320.000000)" fill="#717171" fill-rule="nonzero">
            <g id="What-can-you-do">
                <g id="Text" transform="translate(150.000000, 160.000000)">
                    <g id="Solution" transform="translate(0.000000, 160.000000)">
                        <g id="Solution-Icon">
                            <g id="noun_Light-Bulb_794640-(1)" transform="translate(8.000000, 7.000000)">
                                <g id="Group">
                                    <path d="M23.6047805,11.0397286 C22.8624918,5.56470952 18.5572174,1.15427752 13.2127388,0.545942069 C6.0867673,-0.214477241 0,5.56470952 0,12.712651 C0,16.5147476 1.78149287,20.3168441 4.89910539,22.5981021 C5.49293635,23.0543537 5.93830957,23.9668568 5.93830957,24.87936 L5.93830957,26.4001986 L17.8149287,26.4001986 L17.8149287,24.87936 C17.8149287,23.9668568 18.2603019,23.0543537 18.7056751,22.5981021 C22.4171186,20.0126764 24.1986115,15.6022444 23.6047805,11.0397286 Z M17.07264,20.1647603 C16.0334358,20.9251796 15.4396049,21.9897666 14.9942317,23.3585214 L13.3611965,23.3585214 L13.3611965,15.1459928 L17.8149287,12.2563994 L16.1818936,9.67097379 L11.8766191,12.4084833 L7.5713447,9.67097379 L5.93830957,12.2563994 L10.3920417,15.1459928 L10.3920417,23.3585214 L8.75900661,23.3585214 C8.46209113,21.9897666 7.71980243,20.9251796 6.68059826,20.0126764 C4.30527443,18.3397539 2.96915478,15.6022444 2.96915478,12.712651 C2.96915478,7.38971586 7.5713447,2.97928386 12.9158233,3.58761931 C16.9241823,4.0438709 20.1902525,7.38971586 20.6356257,11.3438963 C21.080999,14.8418251 19.7448793,18.1876701 17.07264,20.1647603 Z" id="Shape"></path>
                                    <path d="M14.8457739,27.9210372 L8.90746435,27.9210372 C8.01671791,27.9210372 7.42288696,28.5293727 7.42288696,29.4418759 C7.42288696,30.354379 8.01671791,30.9627145 8.90746435,30.9627145 L14.8457739,30.9627145 C15.7365203,30.9627145 16.3303513,30.354379 16.3303513,29.4418759 C16.3303513,28.5293727 15.7365203,27.9210372 14.8457739,27.9210372 Z" id="Path"></path>
                                </g>
                            </g>
                            <g id="noun_Light-Bulb_799621">
                                <g id="Group" transform="translate(0.748800, 0.000000)">
                                    <rect id="Rectangle" x="0" y="16.80588" width="3.89376" height="3.73464"></rect>
                                    <rect id="Rectangle" x="35.04384" y="16.80588" width="3.89376" height="3.73464"></rect>
                                    <polygon id="Rectangle" transform="translate(31.749953, 6.797418) rotate(-135.000000) translate(-31.749953, -6.797418) " points="29.8826506 4.93011617 33.696814 4.85055693 33.6172548 8.66472036 29.8030913 8.74427959"></polygon>
                                    <rect id="Rectangle" x="17.52192" y="0" width="3.89376" height="3.73464"></rect>
                                    <polygon id="Rectangle" transform="translate(6.982135, 6.796111) rotate(-45.000000) translate(-6.982135, -6.796111) " points="5.03527335 4.84924981 8.84943677 4.92880905 8.92899601 8.74297247 5.11483259 8.66341323"></polygon>
                                </g>
                            </g>
                        </g>
                    </g>
                </g>
            </g>
        </g>
    </g>
</svg>